<svg width="20" height="20" viewBox="0 0 20 20" fill="none" xmlns="http://www.w3.org/2000/svg">
<mask id="mask0_358_109" style="mask-type:alpha" maskUnits="userSpaceOnUse" x="0" y="0" width="20" height="20">
<rect width="20" height="20" fill="#D9D9D9"/>
</mask>
<g mask="url(#mask0_358_109)">
<path d="M2 18V3.5C2 3.0875 2.14688 2.73438 2.44063 2.44063C2.73438 2.14688 3.0875 2 3.5 2H16.5C16.9125 2 17.2656 2.14688 17.5594 2.44063C17.8531 2.73438 18 3.0875 18 3.5V13.5C18 13.9125 17.8531 14.2656 17.5594 14.5594C17.2656 14.8531 16.9125 15 16.5 15H5L2 18ZM4.375 13.5H16.5V3.5H3.5V14.375L4.375 13.5Z" fill="#999999"/>
</g>
</svg>
