<svg width="34" height="34" viewBox="0 0 34 34" fill="none" xmlns="http://www.w3.org/2000/svg">
<mask id="mask0_403_209" style="mask-type:alpha" maskUnits="userSpaceOnUse" x="0" y="0" width="34" height="34">
<rect width="34" height="34" fill="#D9D9D9"/>
</mask>
<g mask="url(#mask0_403_209)">
<path d="M2.83333 34.0002V29.2543H31.1667V34.0002H2.83333ZM8.02789 23.1156H9.72789L22.6429 10.2119L20.9312 8.50016L8.02789 21.4156V23.1156ZM5.66666 25.4764V20.4473L22.6196 3.50641C22.8476 3.27809 23.1054 3.10892 23.3927 2.99889C23.6801 2.88863 23.9732 2.8335 24.2721 2.8335C24.5713 2.8335 24.8704 2.88863 25.1696 2.99889C25.4685 3.10892 25.7282 3.28199 25.9487 3.5181L27.6367 5.2181C27.8728 5.4306 28.048 5.68643 28.1623 5.98558C28.2763 6.28473 28.3333 6.58377 28.3333 6.88268C28.3333 7.17405 28.2763 7.46328 28.1623 7.75039C28.048 8.03774 27.8728 8.29947 27.6367 8.53558L10.6958 25.4764H5.66666Z" fill="#5A5A5A"/>
</g>
</svg>
